<svg xmlns="http://www.w3.org/2000/svg" width="49.087" height="56.099" viewBox="0 0 49.087 56.099">
  <path fill="#085483" id="Icon_awesome-calendar-alt" data-name="Icon awesome-calendar-alt" d="M0,50.84A5.261,5.261,0,0,0,5.259,56.1H43.828a5.261,5.261,0,0,0,5.259-5.259v-29.8H0ZM35.062,29.364a1.319,1.319,0,0,1,1.315-1.315H40.76a1.319,1.319,0,0,1,1.315,1.315v4.383a1.319,1.319,0,0,1-1.315,1.315H36.377a1.319,1.319,0,0,1-1.315-1.315Zm0,14.025a1.319,1.319,0,0,1,1.315-1.315H40.76a1.319,1.319,0,0,1,1.315,1.315v4.383a1.319,1.319,0,0,1-1.315,1.315H36.377a1.319,1.319,0,0,1-1.315-1.315ZM21.037,29.364a1.319,1.319,0,0,1,1.315-1.315h4.383a1.319,1.319,0,0,1,1.315,1.315v4.383a1.319,1.319,0,0,1-1.315,1.315H22.352a1.319,1.319,0,0,1-1.315-1.315Zm0,14.025a1.319,1.319,0,0,1,1.315-1.315h4.383a1.319,1.319,0,0,1,1.315,1.315v4.383a1.319,1.319,0,0,1-1.315,1.315H22.352a1.319,1.319,0,0,1-1.315-1.315ZM7.012,29.364A1.319,1.319,0,0,1,8.327,28.05H12.71a1.319,1.319,0,0,1,1.315,1.315v4.383a1.319,1.319,0,0,1-1.315,1.315H8.327a1.319,1.319,0,0,1-1.315-1.315Zm0,14.025a1.319,1.319,0,0,1,1.315-1.315H12.71a1.319,1.319,0,0,1,1.315,1.315v4.383a1.319,1.319,0,0,1-1.315,1.315H8.327a1.319,1.319,0,0,1-1.315-1.315ZM43.828,7.012H38.568V1.753A1.758,1.758,0,0,0,36.815,0H33.309a1.758,1.758,0,0,0-1.753,1.753V7.012H17.531V1.753A1.758,1.758,0,0,0,15.778,0H12.272a1.758,1.758,0,0,0-1.753,1.753V7.012H5.259A5.261,5.261,0,0,0,0,12.272v5.259H49.087V12.272A5.261,5.261,0,0,0,43.828,7.012Z"/>
</svg>
